<svg id="Layer_1" enable-background="new 0 0 512 512" height="512" viewBox="0 0 512 512" width="512" xmlns="http://www.w3.org/2000/svg"><g><path d="m512 296.919v-81.839l-72.467-12.885c-3.853-13.167-9.114-25.859-15.719-37.915l42.139-60.366-57.868-57.869-60.365 42.14c-12.055-6.604-24.746-11.866-37.915-15.719l-12.885-72.466h-81.84l-12.885 72.466c-13.169 3.853-25.86 9.115-37.915 15.719l-60.365-42.139-57.868 57.869 42.139 60.366c-6.605 12.056-11.867 24.748-15.72 37.915l-72.466 12.885v81.839l72.467 12.885c3.853 13.169 9.114 25.861 15.719 37.915l-42.139 60.365 57.868 57.869 60.365-42.139c12.055 6.604 24.746 11.866 37.915 15.719l12.885 72.466h81.84l12.885-72.466c13.168-3.853 25.859-9.114 37.915-15.719l60.365 42.139 57.868-57.869-42.139-60.366c6.604-12.055 11.866-24.747 15.719-37.915zm-85.033 107.727-22.321 22.321-55.686-38.872-8.386 5.178c-14.672 9.06-30.591 15.659-47.314 19.615l-9.591 2.268-11.886 66.844h-31.566l-11.886-66.844-9.591-2.268c-16.726-3.956-32.645-10.556-47.313-19.615l-8.386-5.179-55.687 38.873-22.321-22.321 38.873-55.687-5.179-8.386c-9.059-14.668-15.658-30.586-19.614-47.314l-2.269-9.59-66.844-11.886v-31.566l66.845-11.886 2.269-9.591c3.954-16.722 10.553-32.64 19.614-47.313l5.179-8.386-38.873-55.686 22.321-22.321 55.687 38.873 8.386-5.179c14.669-9.06 30.588-15.659 47.313-19.615l9.591-2.268 11.885-66.845h31.566l11.886 66.844 9.591 2.268c16.726 3.956 32.645 10.556 47.313 19.615l8.386 5.179 55.687-38.873 22.321 22.321-38.873 55.686 5.179 8.386c9.06 14.671 15.659 30.59 19.614 47.314l2.269 9.59 66.844 11.887v31.566l-66.845 11.886-2.269 9.59c-3.955 16.725-10.555 32.644-19.614 47.314l-5.179 8.386z"/><path d="m256 124.422c-72.553 0-131.578 59.026-131.578 131.578s59.025 131.578 131.578 131.578c72.552 0 131.577-59.026 131.577-131.578s-59.025-131.578-131.577-131.578zm0 233.156c-56.011 0-101.578-45.568-101.578-101.578s45.567-101.578 101.578-101.578c56.01 0 101.577 45.568 101.577 101.578s-45.567 101.578-101.577 101.578z"/><path d="m256 184.422c-39.469 0-71.578 32.11-71.578 71.578s32.109 71.578 71.578 71.578c39.468 0 71.577-32.11 71.577-71.578s-32.109-71.578-71.577-71.578zm0 113.156c-22.926 0-41.578-18.652-41.578-41.578s18.652-41.578 41.578-41.578 41.577 18.652 41.577 41.578-18.651 41.578-41.577 41.578z"/></g></svg>